<svg width="20" height="20" viewBox="0 0 20 20" fill="none" xmlns="http://www.w3.org/2000/svg">
<g clip-path="url(#clip0_34_352)">
<path d="M16.6667 19.0833C16.5834 19.0833 16.5001 19.0833 16.4167 19.0833C13.7501 18.75 11.0834 17.8333 8.83342 16.4166C6.75008 15.0833 4.91675 13.25 3.58342 11.1666C2.08342 8.91663 1.16675 6.24996 0.916748 3.58329C0.916748 2.91663 1.08341 2.24996 1.50008 1.74996C1.91675 1.24996 2.50008 0.916626 3.16675 0.833293C3.25008 0.833293 3.33341 0.833293 3.41675 0.833293H5.91675C7.16675 0.833293 8.25008 1.74996 8.41675 2.99996C8.50008 3.74996 8.66675 4.49996 8.91675 5.16663C9.25008 6.08329 9.00008 7.08329 8.33341 7.83329L7.75008 8.41663C8.75008 9.91663 10.0001 11.25 11.5834 12.25L12.1667 11.6666C12.8334 11 13.9167 10.75 14.8334 11.0833C15.5001 11.3333 16.2501 11.5 17.0001 11.5833C18.2501 11.75 19.1667 12.8333 19.1667 14.0833V16.5833C19.1667 17.25 18.9167 17.9166 18.4167 18.3333C17.9167 18.75 17.3334 19.0833 16.6667 19.0833ZM5.91675 2.49996H3.41675C3.16675 2.49996 2.91675 2.66663 2.75008 2.83329C2.66675 2.99996 2.58341 3.16663 2.58341 3.41663C2.83341 5.83329 3.66675 8.16663 5.00008 10.25C6.25008 12.1666 7.83341 13.8333 9.75008 15C11.8334 16.3333 14.1667 17.1666 16.5834 17.4166C16.9167 17.4166 17.0834 17.3333 17.2501 17.1666C17.4167 17 17.5001 16.8333 17.5001 16.5833V14.0833C17.5001 13.6666 17.1667 13.3333 16.7501 13.25C15.9167 13.1666 15.0834 12.9166 14.2501 12.5833C13.9167 12.5 13.5834 12.5 13.3334 12.75L12.2501 13.8333C12.0001 14.0833 11.5834 14.1666 11.2501 14C9.00008 12.75 7.16675 10.9166 5.91675 8.66663C5.83342 8.33329 5.91675 7.91663 6.16675 7.66663L7.25008 6.58329C7.41675 6.41663 7.50008 5.99996 7.41675 5.74996C7.08341 4.91663 6.91675 4.08329 6.75008 3.24996C6.75008 2.83329 6.33342 2.49996 5.91675 2.49996ZM15.8334 8.33329C15.4167 8.33329 15.0834 8.08329 15.0001 7.66663C14.7501 6.33329 13.6667 5.33329 12.3334 4.99996C11.9167 4.91663 11.5834 4.49996 11.6667 3.99996C11.7501 3.58329 12.1667 3.24996 12.6667 3.33329C14.6667 3.74996 16.2501 5.24996 16.5834 7.24996C16.6667 7.66663 16.4167 8.16663 15.9167 8.24996C15.9167 8.24996 15.9167 8.33329 15.8334 8.33329ZM19.1667 8.24996C18.7501 8.24996 18.4167 7.91663 18.3334 7.49996C18.0001 4.41663 15.5834 1.99996 12.4167 1.58329C12.0001 1.49996 11.6667 1.08329 11.6667 0.666626C11.6667 0.249959 12.1667 -0.083374 12.5834 -0.083374C16.5001 0.333293 19.5001 3.33329 19.9167 7.24996C20.0001 7.66663 19.6667 8.08329 19.1667 8.16663C19.2501 8.24996 19.1667 8.24996 19.1667 8.24996Z" fill="#141414"/>
</g>
<defs>
<clipPath id="clip0_34_352">
<rect width="20" height="20" fill="white"/>
</clipPath>
</defs>
</svg>
