<svg width="40" height="40" viewBox="0 0 40 40" fill="none" xmlns="http://www.w3.org/2000/svg">
<g clip-path="url(#clip0_34_359)">
<path d="M13.8334 36.5C9.50007 36.5 5.00007 35.3333 1.00007 33C0.333407 32.6667 7.32358e-05 31.8333 0.16674 31.1667C0.333407 30.5 1.00007 30 1.66674 30C4.50007 30.1667 7.33341 29.5 9.83341 28.3333C3.66674 24.5 2.00007 19.1667 1.83341 15C1.66674 10.1667 3.33341 6.16667 3.50007 6C3.66674 5.5 4.16674 5 4.83341 5C5.50007 5 6.00007 5.16667 6.33341 5.66667C9.16674 9.66667 13.5001 12.1667 18.3334 12.5C18.3334 9.83333 19.5001 7.33333 21.5001 5.5C25.0001 2.5 30.1667 2.5 33.6667 5.5C35.0001 5 36.3334 4.33333 37.5001 3.5C38.0001 3.16667 38.8334 3.16667 39.3334 3.5C39.8334 3.83333 40.1667 4.66667 40.0001 5.33333C39.5001 7.66667 38.3334 9.83333 36.6667 11.6667C36.6667 12 36.6667 12.1667 36.6667 12.5C36.6667 21.6667 32.6667 29.3333 25.5001 33.3333C22.0001 35.5 18.0001 36.5 13.8334 36.5ZM8.33341 32.5C13.8334 33.8333 19.3334 33.1667 24.0001 30.5C30.0001 27 33.5001 20.3333 33.5001 12.5C33.5001 12.1667 33.5001 11.8333 33.3334 11.5C33.1667 11 33.3334 10.3333 33.8334 10C34.1667 9.66667 34.5001 9.16667 34.8334 8.83333C34.5001 9 34.0001 9.16667 33.6667 9.16667C33.0001 9.33333 32.3334 9.16667 32.0001 8.66667C29.8334 6.33333 26.1667 6 23.8334 8.16667C22.3334 9.16667 21.6667 10.8333 21.6667 12.5V14.1667C21.6667 15 21.0001 15.8333 20.0001 15.8333C14.5001 16 9.33341 13.8333 5.66674 10C4.66674 14.3333 4.33341 22.5 14.0001 26.6667C14.5001 27 15.0001 27.5 15.0001 28.1667C15.0001 28.8333 14.8334 29.3333 14.3334 29.6667C12.3334 31 10.3334 32 8.33341 32.5Z" fill="#141414"/>
</g>
<defs>
<clipPath id="clip0_34_359">
<rect width="40" height="40" fill="white"/>
</clipPath>
</defs>
</svg>
