<svg width="50" height="50" viewBox="0 0 50 50" fill="none" xmlns="http://www.w3.org/2000/svg">
<path d="M30.7292 47.3958H21.3542V32.2917H19.375C18.1666 32.2917 17.1875 31.3125 17.1875 30.1042V26.1458C17.1875 24.9375 18.1666 23.9583 19.375 23.9583H21.3542V18.75C21.3542 14.4375 24.8542 10.9375 29.1667 10.9375H34.7917C36 10.9375 36.9792 11.9166 36.9792 13.125V18.125C36.9792 19.3334 36 20.3125 34.7917 20.3125H30.7292V23.9583H34.6458C35.3125 23.9583 35.9167 24.25 36.3333 24.75C36.75 25.25 36.9167 25.9167 36.7917 26.5625L36 30.5208C35.7917 31.5417 34.8958 32.2708 33.8542 32.2708H30.7292V47.3958V47.3958ZM24.4792 44.2708H27.6042V29.1667H33.1042L33.5208 27.0833H27.625V19.375C27.625 18.1666 28.6042 17.1875 29.8125 17.1875H33.875V14.0625H29.1667C26.5833 14.0625 24.4792 16.1667 24.4792 18.75V27.0833H20.3125V29.1667H24.4792V44.2708Z" fill="#141414"/>
<path d="M31.2501 47.3958H18.7501C7.43758 47.3958 2.60425 42.5625 2.60425 31.25V18.75C2.60425 7.43746 7.43758 2.60413 18.7501 2.60413H31.2501C42.5626 2.60413 47.3959 7.43746 47.3959 18.75V31.25C47.3959 42.5625 42.5626 47.3958 31.2501 47.3958ZM18.7501 5.72913C9.14591 5.72913 5.72925 9.14579 5.72925 18.75V31.25C5.72925 40.8541 9.14591 44.2708 18.7501 44.2708H31.2501C40.8542 44.2708 44.2709 40.8541 44.2709 31.25V18.75C44.2709 9.14579 40.8542 5.72913 31.2501 5.72913H18.7501Z" fill="#141414"/>
</svg>
