<svg width="50" height="50" viewBox="0 0 50 50" fill="none" xmlns="http://www.w3.org/2000/svg">
<path fill-rule="evenodd" clip-rule="evenodd" d="M14.5833 6.25004C9.98088 6.25004 6.24992 9.981 6.24992 14.5834V35.4167C6.24992 40.0191 9.98088 43.75 14.5833 43.75H35.4166C40.019 43.75 43.7499 40.0191 43.7499 35.4167V14.5834C43.7499 9.981 40.019 6.25004 35.4166 6.25004H14.5833ZM2.08325 14.5834C2.08325 7.67981 7.67969 2.08337 14.5833 2.08337H35.4166C42.3201 2.08337 47.9166 7.67981 47.9166 14.5834V35.4167C47.9166 42.3203 42.3201 47.9167 35.4166 47.9167H14.5833C7.67969 47.9167 2.08325 42.3203 2.08325 35.4167V14.5834Z" fill="#666666"/>
<path fill-rule="evenodd" clip-rule="evenodd" d="M26.007 18.7274C24.7067 18.5346 23.3786 18.7567 22.2117 19.3622C21.0448 19.9677 20.0986 20.9257 19.5075 22.0999C18.9165 23.2742 18.7108 24.6049 18.9196 25.9028C19.1285 27.2007 19.7413 28.3997 20.6708 29.3293C21.6004 30.2588 22.7994 30.8716 24.0973 31.0805C25.3952 31.2893 26.7259 31.0836 27.9002 30.4926C29.0745 29.9015 30.0324 28.9553 30.6379 27.7884C31.2434 26.6215 31.4655 25.2935 31.2727 23.9931C31.076 22.6666 30.4579 21.4386 29.5097 20.4904C28.5615 19.5422 27.3335 18.9241 26.007 18.7274ZM20.2927 15.6638C22.2374 14.6547 24.4509 14.2845 26.6182 14.6058C28.829 14.9337 30.8756 15.9638 32.456 17.5441C34.0363 19.1245 35.0664 21.1712 35.3943 23.3819C35.7156 25.5492 35.3454 27.7627 34.3363 29.7074C33.3272 31.6522 31.7306 33.2293 29.7735 34.2144C27.8164 35.1994 25.5985 35.5423 23.4354 35.1942C21.2722 34.8461 19.2738 33.8248 17.7246 32.2755C16.1753 30.7263 15.154 28.7279 14.8059 26.5647C14.4578 24.4016 14.8007 22.1837 15.7857 20.2266C16.7708 18.2695 18.3479 16.6729 20.2927 15.6638Z" fill="#666666"/>
</svg>
