<svg width="25" height="25" viewBox="0 0 25 25" fill="none" xmlns="http://www.w3.org/2000/svg">
<path fill-rule="evenodd" clip-rule="evenodd" d="M4.16675 5.20833C3.59621 5.20833 3.12508 5.67946 3.12508 6.25V18.75C3.12508 19.3205 3.59621 19.7917 4.16675 19.7917H20.8334C21.404 19.7917 21.8751 19.3205 21.8751 18.75V6.25C21.8751 5.67946 21.404 5.20833 20.8334 5.20833H4.16675ZM1.04175 6.25C1.04175 4.52887 2.44562 3.125 4.16675 3.125H20.8334C22.5545 3.125 23.9584 4.52887 23.9584 6.25V18.75C23.9584 20.4711 22.5545 21.875 20.8334 21.875H4.16675C2.44562 21.875 1.04175 20.4711 1.04175 18.75V6.25Z" fill="#141414"/>
<path fill-rule="evenodd" clip-rule="evenodd" d="M1.22989 5.65265C1.5598 5.18135 2.20932 5.06673 2.68062 5.39664L12.4999 12.2702L22.3192 5.39664C22.7905 5.06673 23.44 5.18135 23.77 5.65265C24.0999 6.12395 23.9853 6.77346 23.5139 7.10337L13.0973 14.395C12.7386 14.6461 12.2612 14.6461 11.9026 14.395L1.4859 7.10337C1.0146 6.77346 0.899983 6.12395 1.22989 5.65265Z" fill="#141414"/>
</svg>
