<svg width="25" height="25" viewBox="0 0 25 25" fill="none" xmlns="http://www.w3.org/2000/svg">
<path fill-rule="evenodd" clip-rule="evenodd" d="M12.4999 2.08333C10.2898 2.08333 8.17016 2.96131 6.60736 4.52411C5.04456 6.08691 4.16659 8.20653 4.16659 10.4167C4.16659 13.6438 6.26631 16.7753 8.56862 19.2055C9.69847 20.3981 10.8319 21.3744 11.684 22.053C12.0011 22.3055 12.2781 22.5158 12.4999 22.6798C12.7218 22.5158 12.9988 22.3055 13.3159 22.053C14.168 21.3744 15.3014 20.3981 16.4312 19.2055C18.7335 16.7753 20.8333 13.6438 20.8333 10.4167C20.8333 8.20653 19.9553 6.08691 18.3925 4.52411C16.8297 2.96131 14.7101 2.08333 12.4999 2.08333ZM12.4999 23.9583C11.9221 24.8251 11.9218 24.8249 11.9215 24.8247L11.9186 24.8227L11.9116 24.818L11.8878 24.8019C11.8675 24.7881 11.8385 24.7683 11.8015 24.7427C11.7276 24.6915 11.6212 24.6168 11.4872 24.52C11.2192 24.3265 10.8399 24.044 10.3862 23.6827C9.48047 22.9615 8.27012 21.9196 7.05622 20.6383C4.67103 18.1206 2.08325 14.4812 2.08325 10.4167C2.08325 7.65399 3.18072 5.00447 5.13422 3.05097C7.08773 1.09747 9.73725 0 12.4999 0C15.2626 0 17.9121 1.09747 19.8656 3.05097C21.8191 5.00447 22.9166 7.65399 22.9166 10.4167C22.9166 14.4812 20.3288 18.1206 17.9436 20.6383C16.7297 21.9196 15.5194 22.9615 14.6136 23.6827C14.16 24.044 13.7806 24.3265 13.5126 24.52C13.3786 24.6168 13.2723 24.6915 13.1983 24.7427C13.1613 24.7683 13.1324 24.7881 13.1121 24.8019L13.0882 24.818L13.0813 24.8227L13.0791 24.8242C13.0788 24.8244 13.0777 24.8251 12.4999 23.9583ZM12.4999 23.9583L13.0777 24.8251C12.7278 25.0583 12.2714 25.0579 11.9215 24.8247L12.4999 23.9583Z" fill="#141414"/>
<path fill-rule="evenodd" clip-rule="evenodd" d="M12.4999 8.33333C11.3493 8.33333 10.4166 9.26607 10.4166 10.4167C10.4166 11.5673 11.3493 12.5 12.4999 12.5C13.6505 12.5 14.5833 11.5673 14.5833 10.4167C14.5833 9.26607 13.6505 8.33333 12.4999 8.33333ZM8.33325 10.4167C8.33325 8.11548 10.1987 6.25 12.4999 6.25C14.8011 6.25 16.6666 8.11548 16.6666 10.4167C16.6666 12.7179 14.8011 14.5833 12.4999 14.5833C10.1987 14.5833 8.33325 12.7179 8.33325 10.4167Z" fill="#141414"/>
</svg>
