<svg width="25" height="25" viewBox="0 0 25 25" fill="none" xmlns="http://www.w3.org/2000/svg">
<g clip-path="url(#clip0_34_380)">
<path d="M20.8333 23.8542C20.7291 23.8542 20.6249 23.8542 20.5208 23.8542C17.1874 23.4375 13.8541 22.2917 11.0416 20.5209C8.43742 18.8542 6.14575 16.5625 4.47909 13.9584C2.60409 11.1459 1.45825 7.81254 1.14575 4.47921C1.14575 3.64587 1.35409 2.81254 1.87492 2.18754C2.39575 1.56254 3.12492 1.14587 3.95825 1.04171C4.06242 1.04171 4.16659 1.04171 4.27075 1.04171H7.39575C8.95825 1.04171 10.3124 2.18754 10.5208 3.75004C10.6249 4.68754 10.8333 5.62504 11.1458 6.45837C11.5624 7.60421 11.2499 8.85421 10.4166 9.79171L9.68742 10.5209C10.9374 12.3959 12.4999 14.0625 14.4791 15.3125L15.2083 14.5834C16.0416 13.75 17.3958 13.4375 18.5416 13.8542C19.3749 14.1667 20.3124 14.375 21.2499 14.4792C22.8124 14.6875 23.9583 16.0417 23.9583 17.6042V20.7292C23.9583 21.5625 23.6458 22.3959 23.0208 22.9167C22.3958 23.4375 21.6666 23.8542 20.8333 23.8542ZM7.39575 3.12504H4.27075C3.95825 3.12504 3.64575 3.33337 3.43742 3.54171C3.33325 3.75004 3.22909 3.95837 3.22909 4.27087C3.54159 7.29171 4.58325 10.2084 6.24992 12.8125C7.81242 15.2084 9.79159 17.2917 12.1874 18.75C14.7916 20.4167 17.7083 21.4584 20.7291 21.7709C21.1458 21.7709 21.3541 21.6667 21.5624 21.4584C21.7708 21.25 21.8749 21.0417 21.8749 20.7292V17.6042C21.8749 17.0834 21.4583 16.6667 20.9374 16.5625C19.8958 16.4584 18.8541 16.1459 17.8124 15.7292C17.3958 15.625 16.9791 15.625 16.6666 15.9375L15.3124 17.2917C14.9999 17.6042 14.4791 17.7084 14.0624 17.5C11.2499 15.9375 8.95825 13.6459 7.39575 10.8334C7.29159 10.4167 7.39575 9.89587 7.70825 9.58337L9.06242 8.22921C9.27075 8.02087 9.37492 7.50004 9.27075 7.18754C8.85409 6.14587 8.64575 5.10421 8.43742 4.06254C8.43742 3.54171 7.91659 3.12504 7.39575 3.12504ZM19.7916 10.4167C19.2708 10.4167 18.8541 10.1042 18.7499 9.58337C18.4374 7.91671 17.0833 6.66671 15.4166 6.25004C14.8958 6.14587 14.4791 5.62504 14.5833 5.00004C14.6874 4.47921 15.2083 4.06254 15.8333 4.16671C18.3333 4.68754 20.3124 6.56254 20.7291 9.06254C20.8333 9.58337 20.5208 10.2084 19.8958 10.3125C19.8958 10.3125 19.8958 10.4167 19.7916 10.4167ZM23.9583 10.3125C23.4374 10.3125 23.0208 9.89587 22.9166 9.37504C22.4999 5.52087 19.4791 2.50004 15.5208 1.97921C14.9999 1.87504 14.5833 1.35421 14.5833 0.833374C14.5833 0.312541 15.2083 -0.104126 15.7291 -0.104126C20.6249 0.416707 24.3749 4.16671 24.8958 9.06254C24.9999 9.58337 24.5833 10.1042 23.9583 10.2084C24.0624 10.3125 23.9583 10.3125 23.9583 10.3125Z" fill="#141414"/>
</g>
<defs>
<clipPath id="clip0_34_380">
<rect width="25" height="25" fill="white"/>
</clipPath>
</defs>
</svg>
