<svg width="28" height="28" viewBox="0 0 28 28" fill="none" xmlns="http://www.w3.org/2000/svg">
<circle cx="14.0001" cy="14" r="10.3333" stroke="#141414" stroke-width="2"/>
<path d="M19.25 15C19.8023 15 20.25 14.5522 20.25 14C20.25 13.4477 19.8023 13 19.25 13V15ZM15 9.91663C15 9.36434 14.5523 8.91663 14 8.91663C13.4477 8.91663 13 9.36434 13 9.91663H15ZM19.25 13H14.25V15H19.25V13ZM15 13.75V9.91663H13V13.75H15ZM14.25 13C14.6642 13 15 13.3357 15 13.75H13C13 14.4403 13.5596 15 14.25 15V13Z" fill="#141414"/>
</svg>
