<svg width="50" height="50" viewBox="0 0 50 50" fill="none" xmlns="http://www.w3.org/2000/svg">
<g clip-path="url(#clip0_34_374)">
<path d="M17.2917 45.625C11.875 45.625 6.25003 44.1667 1.25003 41.25C0.416697 40.8333 3.05027e-05 39.7917 0.208364 38.9583C0.416697 38.125 1.25003 37.5 2.08336 37.5C5.62503 37.7083 9.1667 36.875 12.2917 35.4167C4.58336 30.625 2.50003 23.9583 2.2917 18.75C2.08336 12.7083 4.1667 7.70833 4.37503 7.5C4.58336 6.875 5.20836 6.25 6.0417 6.25C6.87503 6.25 7.50003 6.45833 7.9167 7.08333C11.4584 12.0833 16.875 15.2083 22.9167 15.625C22.9167 12.2917 24.375 9.16667 26.875 6.875C31.25 3.125 37.7084 3.125 42.0834 6.875C43.75 6.25 45.4167 5.41667 46.875 4.375C47.5 3.95833 48.5417 3.95833 49.1667 4.375C49.7917 4.79167 50.2084 5.83333 50 6.66667C49.375 9.58333 47.9167 12.2917 45.8334 14.5833C45.8334 15 45.8334 15.2083 45.8334 15.625C45.8334 27.0833 40.8334 36.6667 31.875 41.6667C27.5 44.375 22.5 45.625 17.2917 45.625ZM10.4167 40.625C17.2917 42.2917 24.1667 41.4583 30 38.125C37.5 33.75 41.875 25.4167 41.875 15.625C41.875 15.2083 41.875 14.7917 41.6667 14.375C41.4584 13.75 41.6667 12.9167 42.2917 12.5C42.7084 12.0833 43.125 11.4583 43.5417 11.0417C43.125 11.25 42.5 11.4583 42.0834 11.4583C41.25 11.6667 40.4167 11.4583 40 10.8333C37.2917 7.91667 32.7084 7.5 29.7917 10.2083C27.9167 11.4583 27.0834 13.5417 27.0834 15.625V17.7083C27.0834 18.75 26.25 19.7917 25 19.7917C18.125 20 11.6667 17.2917 7.08336 12.5C5.83336 17.9167 5.4167 28.125 17.5 33.3333C18.125 33.75 18.75 34.375 18.75 35.2083C18.75 36.0417 18.5417 36.6667 17.9167 37.0833C15.4167 38.75 12.9167 40 10.4167 40.625Z" fill="#141414"/>
</g>
<defs>
<clipPath id="clip0_34_374">
<rect width="50" height="50" fill="white"/>
</clipPath>
</defs>
</svg>
