<svg width="24" height="25" viewBox="0 0 24 25" fill="none" xmlns="http://www.w3.org/2000/svg">
<path d="M19.6875 24.8541C19.5833 24.8541 19.4792 24.8541 19.375 24.8541C16.0417 24.4374 12.7083 23.2916 9.89583 21.5208C7.29167 19.8541 5 17.5624 3.33333 14.9583C1.45833 12.1458 0.3125 8.81242 0 5.47909C0 4.64575 0.208333 3.81242 0.729167 3.18742C1.25 2.56242 1.97917 2.14575 2.8125 2.04159C2.91667 2.04159 3.02083 2.04159 3.125 2.04159H6.25C7.8125 2.04159 9.16667 3.18742 9.375 4.74992C9.47917 5.68742 9.6875 6.62492 10 7.45825C10.4167 8.60408 10.1042 9.85408 9.27083 10.7916L8.54167 11.5208C9.79167 13.3958 11.3542 15.0624 13.3333 16.3124L14.0625 15.5833C14.8958 14.7499 16.25 14.4374 17.3958 14.8541C18.2292 15.1666 19.1667 15.3749 20.1042 15.4791C21.6667 15.6874 22.8125 17.0416 22.8125 18.6041V21.7291C22.8125 22.5624 22.5 23.3958 21.875 23.9166C21.25 24.4374 20.5208 24.8541 19.6875 24.8541ZM6.25 4.12492H3.125C2.8125 4.12492 2.5 4.33325 2.29167 4.54159C2.1875 4.74992 2.08333 4.95825 2.08333 5.27075C2.39583 8.29158 3.4375 11.2083 5.10417 13.8124C6.66667 16.2083 8.64583 18.2916 11.0417 19.7499C13.6458 21.4166 16.5625 22.4583 19.5833 22.7708C20 22.7708 20.2083 22.6666 20.4167 22.4583C20.625 22.2499 20.7292 22.0416 20.7292 21.7291V18.6041C20.7292 18.0833 20.3125 17.6666 19.7917 17.5624C18.75 17.4583 17.7083 17.1458 16.6667 16.7291C16.25 16.6249 15.8333 16.6249 15.5208 16.9374L14.1667 18.2916C13.8542 18.6041 13.3333 18.7083 12.9167 18.4999C10.1042 16.9374 7.8125 14.6458 6.25 11.8333C6.14583 11.4166 6.25 10.8958 6.5625 10.5833L7.91667 9.22908C8.125 9.02075 8.22917 8.49992 8.125 8.18742C7.70833 7.14575 7.5 6.10409 7.29167 5.06242C7.29167 4.54159 6.77083 4.12492 6.25 4.12492ZM18.6458 11.4166C18.125 11.4166 17.7083 11.1041 17.6042 10.5833C17.2917 8.91659 15.9375 7.66658 14.2708 7.24992C13.75 7.14575 13.3333 6.62492 13.4375 5.99992C13.5417 5.47909 14.0625 5.06242 14.6875 5.16659C17.1875 5.68742 19.1667 7.56242 19.5833 10.0624C19.6875 10.5833 19.375 11.2083 18.75 11.3124C18.75 11.3124 18.75 11.4166 18.6458 11.4166ZM22.8125 11.3124C22.2917 11.3124 21.875 10.8958 21.7708 10.3749C21.3542 6.52075 18.3333 3.49992 14.375 2.97909C13.8542 2.87492 13.4375 2.35409 13.4375 1.83325C13.4375 1.31242 14.0625 0.895752 14.5833 0.895752C19.4792 1.41659 23.2292 5.16659 23.75 10.0624C23.8542 10.5833 23.4375 11.1041 22.8125 11.2083C22.9167 11.3124 22.8125 11.3124 22.8125 11.3124Z" fill="white"/>
</svg>
