<svg width="24" height="24" viewBox="0 0 24 24" fill="none" xmlns="http://www.w3.org/2000/svg">
<path d="M19.8333 23.8541C19.7291 23.8541 19.6249 23.8541 19.5208 23.8541C16.1874 23.4374 12.8541 22.2916 10.0416 20.5208C7.43742 18.8541 5.14575 16.5624 3.47909 13.9583C1.60409 11.1458 0.458252 7.81242 0.145752 4.47909C0.145752 3.64575 0.354085 2.81242 0.874919 2.18742C1.39575 1.56242 2.12492 1.14575 2.95825 1.04159C3.06242 1.04159 3.16659 1.04159 3.27075 1.04159H6.39575C7.95825 1.04159 9.31242 2.18742 9.52075 3.74992C9.62492 4.68742 9.83325 5.62492 10.1458 6.45825C10.5624 7.60408 10.2499 8.85408 9.41658 9.79158L8.68742 10.5208C9.93742 12.3958 11.4999 14.0624 13.4791 15.3124L14.2083 14.5833C15.0416 13.7499 16.3958 13.4374 17.5416 13.8541C18.3749 14.1666 19.3124 14.3749 20.2499 14.4791C21.8124 14.6874 22.9583 16.0416 22.9583 17.6041V20.7291C22.9583 21.5624 22.6458 22.3958 22.0208 22.9166C21.3958 23.4374 20.6666 23.8541 19.8333 23.8541ZM6.39575 3.12492H3.27075C2.95825 3.12492 2.64575 3.33325 2.43742 3.54159C2.33325 3.74992 2.22908 3.95825 2.22908 4.27075C2.54158 7.29158 3.58325 10.2083 5.24992 12.8124C6.81242 15.2083 8.79158 17.2916 11.1874 18.7499C13.7916 20.4166 16.7083 21.4583 19.7291 21.7708C20.1458 21.7708 20.3541 21.6666 20.5624 21.4583C20.7708 21.2499 20.8749 21.0416 20.8749 20.7291V17.6041C20.8749 17.0833 20.4583 16.6666 19.9374 16.5624C18.8958 16.4583 17.8541 16.1458 16.8124 15.7291C16.3958 15.6249 15.9791 15.6249 15.6666 15.9374L14.3124 17.2916C13.9999 17.6041 13.4791 17.7083 13.0624 17.4999C10.2499 15.9374 7.95825 13.6458 6.39575 10.8333C6.29158 10.4166 6.39575 9.89575 6.70825 9.58325L8.06242 8.22908C8.27075 8.02075 8.37492 7.49992 8.27075 7.18742C7.85408 6.14575 7.64575 5.10408 7.43742 4.06242C7.43742 3.54159 6.91658 3.12492 6.39575 3.12492ZM18.7916 10.4166C18.2708 10.4166 17.8541 10.1041 17.7499 9.58325C17.4374 7.91658 16.0833 6.66658 14.4166 6.24992C13.8958 6.14575 13.4791 5.62492 13.5833 4.99992C13.6874 4.47909 14.2083 4.06242 14.8333 4.16658C17.3333 4.68742 19.3124 6.56242 19.7291 9.06242C19.8333 9.58325 19.5208 10.2083 18.8958 10.3124C18.8958 10.3124 18.8958 10.4166 18.7916 10.4166ZM22.9583 10.3124C22.4374 10.3124 22.0208 9.89575 21.9166 9.37492C21.4999 5.52075 18.4791 2.49992 14.5208 1.97909C13.9999 1.87492 13.5833 1.35409 13.5833 0.833252C13.5833 0.312419 14.2083 -0.104248 14.7291 -0.104248C19.6249 0.416585 23.3749 4.16659 23.8958 9.06242C23.9999 9.58325 23.5833 10.1041 22.9583 10.2083C23.0624 10.3124 22.9583 10.3124 22.9583 10.3124Z" fill="#141414"/>
</svg>
